<svg width="64" height="64" fill="none" xmlns="http://www.w3.org/2000/svg"><path d="M40.269 38.073c3.78-2.622 6.255-6.992 6.255-11.938 0-1.103-.122-2.178-.36-3.212-2.91 2.045-7.66 3.63-14.665 1.098-6.534-2.364-10.86-2.236-13.555-1.504a14.3 14.3 0 0 0-.46 3.618c0 4.946 2.476 9.316 6.256 11.938 3.301 2.29 5.12 6.176 4.873 10.186l-.696 11.273a4.095 4.095 0 1 0 8.175 0l-.696-11.275c-.248-4.01 1.572-7.894 4.873-10.184Z" fill="url(#a)"/><path d="M52.327 25.662C52.075 14.613 42.822 5.685 31.77 5.809c-11.119.126-20.094 9.178-20.094 20.326 0 6.975 3.516 13.13 8.871 16.79a2.926 2.926 0 0 1 1.293 2.412v9.837h2.904V45.35a5.808 5.808 0 0 0-2.406-4.706l-.498-.36c-4.397-3.16-7.26-8.317-7.26-14.149 0-9.995 8.414-18.022 18.545-17.388 8.84.554 15.959 7.87 16.29 16.72.228 6.104-2.684 11.537-7.248 14.816l-.498.36a5.808 5.808 0 0 0-2.406 4.707v9.825h2.904v-9.838a2.93 2.93 0 0 1 1.296-2.414c5.474-3.743 9.026-10.094 8.863-17.261Z" fill="#03465B"/><path d="M32.004 0C17.572 0 5.87 11.697 5.87 26.135c0 9.67 5.256 18.12 13.068 22.64v-3.428C12.804 41.166 8.773 34.121 8.773 26.135c0-12.83 10.402-23.231 23.231-23.231 12.83 0 23.232 10.402 23.232 23.231 0 7.986-4.031 15.03-10.164 19.212v3.427c7.811-4.518 13.067-12.969 13.067-22.639C58.14 11.697 46.438 0 32.004 0Z" fill="#03465B"/><defs><linearGradient id="a" x1="32.004" y1="17.944" x2="32.004" y2="74.551" gradientUnits="userSpaceOnUse"><stop offset=".14" stop-color="#FFC850"/><stop offset=".374" stop-color="#FFAA48"/><stop offset=".793" stop-color="#FF783C"/><stop offset="1" stop-color="#FF6537"/></linearGradient></defs></svg>