<svg width="231" height="81" fill="none" xmlns="http://www.w3.org/2000/svg"><path d="M109.39 15.34H88.861v54.008h8.32V51.176h11.253c12.851 0 21.485-7.275 21.485-18.101v-.147c0-10.683-8.058-17.587-20.529-17.587Zm-.735 28.031H97.181v-20.15h11.768c7.993 0 12.577 3.617 12.577 9.927v.148c0 6.12-5.052 10.075-12.871 10.075ZM182.009 32.045v-.147c0-4.32-1.542-8.241-4.341-11.039-3.558-3.558-9.072-5.518-15.528-5.518h-23.397v54.007h8.32v-20.01h12.831l14.934 20.01h10.276l-16.155-21.492c8.219-2.154 13.06-7.952 13.06-15.81Zm-34.946-8.824H161.7c7.572 0 11.915 3.242 11.915 8.897v.147c0 5.674-4.706 9.34-11.989 9.34h-14.563V23.221ZM201.58 61.469V15.34h-8.321v54.007h37.307v-7.88H201.58Z" fill="#fff"/><path d="M43.652 47.98c4.734-3.284 7.835-8.758 7.835-14.953 0-1.382-.153-2.728-.45-4.023-3.645 2.56-9.596 4.547-18.369 1.375-8.184-2.96-13.603-2.8-16.979-1.884a17.91 17.91 0 0 0-.575 4.532c0 6.195 3.101 11.669 7.836 14.953 4.134 2.868 6.413 7.735 6.103 12.758l-.872 14.12a5.13 5.13 0 1 0 10.24 0l-.873-14.123c-.31-5.023 1.97-9.887 6.104-12.755Z" fill="url(#a)"/><path d="M58.755 32.434C58.44 18.594 46.85 7.412 33.008 7.568 19.081 7.725 7.84 19.063 7.84 33.027c0 8.736 4.403 16.445 11.111 21.03a3.665 3.665 0 0 1 1.62 3.02V69.4h3.637V57.095a7.274 7.274 0 0 0-3.013-5.896l-.625-.451c-5.506-3.958-9.093-10.417-9.093-17.721 0-12.52 10.538-22.574 23.23-21.78 11.07.694 19.987 9.858 20.402 20.943.285 7.646-3.361 14.45-9.078 18.558l-.624.451a7.275 7.275 0 0 0-3.013 5.896V69.4h3.637V57.078c0-1.217.619-2.337 1.623-3.024 6.857-4.688 11.305-12.643 11.101-21.62Z" fill="#fff"/><path d="M33.3.292C15.225.292.566 14.942.566 33.027c0 12.112 6.584 22.697 16.368 28.356v-4.292C9.251 51.853 4.203 43.03 4.203 33.027c0-16.07 13.028-29.098 29.098-29.098s29.098 13.028 29.098 29.098c0 10.002-5.049 18.826-12.73 24.064v4.292c9.784-5.66 16.367-16.244 16.367-28.356C66.036 14.942 51.378.292 33.301.292Z" fill="#fff"/><defs><linearGradient id="a" x1="33.301" y1="22.768" x2="33.301" y2="93.67" gradientUnits="userSpaceOnUse"><stop offset=".14" stop-color="#FFC850"/><stop offset=".374" stop-color="#FFAA48"/><stop offset=".793" stop-color="#FF783C"/><stop offset="1" stop-color="#FF6537"/></linearGradient></defs></svg>